<?xml version="1.0" encoding="UTF-8" standalone="no"?>
<!-- Generator: Adobe Illustrator 26.0.3, SVG Export Plug-In . SVG Version: 6.00 Build 0)  -->

<svg
   version="1.1"
   id="Ebene_1"
   x="0px"
   y="0px"
   viewBox="0 0 200 200"
   xml:space="preserve"
   sodipodi:docname="shopfloor-logo.svg"
   width="200"
   height="200"
   inkscape:version="1.1.2 (b8e25be8, 2022-02-05)"
   xmlns:inkscape="http://www.inkscape.org/namespaces/inkscape"
   xmlns:sodipodi="http://sodipodi.sourceforge.net/DTD/sodipodi-0.dtd"
   xmlns="http://www.w3.org/2000/svg"
   xmlns:svg="http://www.w3.org/2000/svg"><defs
   id="defs859" /><sodipodi:namedview
   id="namedview857"
   pagecolor="#ffffff"
   bordercolor="#666666"
   borderopacity="1.0"
   inkscape:pageshadow="2"
   inkscape:pageopacity="0.0"
   inkscape:pagecheckerboard="0"
   showgrid="false"
   inkscape:zoom="0.78744806"
   inkscape:cx="248.9053"
   inkscape:cy="37.462788"
   inkscape:window-width="1792"
   inkscape:window-height="993"
   inkscape:window-x="404"
   inkscape:window-y="1465"
   inkscape:window-maximized="1"
   inkscape:current-layer="Ebene_1" />
<style
   type="text/css"
   id="style824">
	.st0{fill:#1B8FCF;}
	.st1{fill-rule:evenodd;clip-rule:evenodd;fill:#0090D4;}
</style>
<g
   id="g854"
   transform="matrix(1.258341,0,0,1.258341,-51.818842,-25.708266)">
	
	
	
	
	
	
	
	
		
	
	
	
	
	<path
   class="st1"
   d="m 121.2,90.6 c 5.2,0 9.4,4.2 9.4,9.4 0,5.2 -4.2,9.4 -9.4,9.4 -5.2,0 -9.4,-4.2 -9.4,-9.4 0,-5.2 4.2,-9.4 9.4,-9.4 z m 0,-11.6 c 11.6,0 21,9.4 21,21 0,11.6 -9.4,21 -21,21 -11.6,0 -21,-9.4 -21,-21 0,-11.6 9.4,-21 21,-21 z"
   id="path850" />
	<path
   class="st1"
   d="m 90.2,43.1 c 0.1,0 0.1,-0.1 0.2,-0.1 2.1,-0.8 4.5,-0.6 6.6,0.6 l 0.6,0.4 0.6,0.4 0.6,0.5 0.5,0.6 0.1,0.2 c 1.8,2.4 2.1,5.8 0.5,8.6 -0.2,0.4 -0.5,0.7 -0.7,1 l -0.4,0.4 -0.6,0.6 -0.6,0.5 -0.6,0.4 -0.7,0.4 -0.9,0.3 -0.7,0.2 -0.3,0.1 c -1.7,0.3 -3.6,0 -5.2,-0.9 -1.6,-0.9 -2.7,-2.3 -3.4,-3.9 l -0.3,-0.9 -0.1,-0.6 -0.1,-0.7 v -0.6 -0.8 l 0.1,-0.6 0.2,-0.8 0.2,-0.5 0.3,-0.7 0.3,-0.6 c 0,-0.1 0.1,-0.1 0.1,-0.2 0.7,-1.5 2.1,-2.7 3.7,-3.3 z m 55.4,0.8 0.6,-0.3 0.5,-0.2 0.8,-0.3 0.8,-0.2 0.7,-0.1 h 0.8 0.8 l 0.7,0.1 0.8,0.2 0.8,0.3 0.7,0.3 0.7,0.4 0.8,0.6 0.6,0.6 0.5,0.6 0.3,0.4 0.4,0.6 0.4,0.9 0.3,1 0.1,0.8 v 0.5 0.7 l -0.1,0.8 -0.2,1 -0.2,0.7 -0.2,0.5 -0.1,0.2 c -0.1,0.2 -0.2,0.4 -0.3,0.5 -1.7,3 -5.2,4.4 -8.4,3.8 l -0.7,-0.2 -0.7,-0.3 -0.7,-0.3 -0.7,-0.4 -0.6,-0.5 -0.5,-0.5 -0.5,-0.5 c -2,-2.5 -2.4,-6 -0.7,-8.9 0.2,-0.3 0.3,-0.6 0.5,-0.8 l 0.6,-0.7 0.5,-0.5 0.3,-0.2 0.7,-0.5 z m -87.9,52 c 2.2,-3.8 7,-5.1 10.8,-2.9 3.8,2.2 5.1,7 2.9,10.8 -2.2,3.8 -7,5.1 -10.8,2.9 -3.8,-2.1 -5.1,-7 -2.9,-10.8 z m 33.7,4.2 c 0,2.7 -2.2,4.8 -4.8,4.8 -2.6,0 -0.1,0 -2.3,0 -1.7,0 -3.2,0.9 -3.9,2.4 -0.2,0.4 -0.4,0.9 -0.7,1.3 -4.8,8.4 -15.6,11.3 -24,6.4 -8.4,-4.9 -11.3,-15.6 -6.4,-24 3.5,-6.1 10.1,-9.3 16.7,-8.7 1.7,0.2 3.2,-0.7 4.1,-2.1 C 72.4,76.3 76.7,68.9 79,65 79.8,63.5 79.8,61.7 78.8,60.4 75,55 74.4,47.7 77.9,41.6 c 4.8,-8.4 15.6,-11.3 24,-6.4 3.3,1.9 5.7,4.7 7.2,7.9 0.7,1.5 2.2,2.6 3.9,2.6 4.3,0.1 12.5,0.1 16.9,0.2 1.7,0 3.2,-1 3.9,-2.5 0.2,-0.5 0.5,-1 0.7,-1.5 4.8,-8.4 15.6,-11.3 24,-6.4 8.4,4.8 11.3,15.6 6.4,23.9 -0.3,0.6 -0.7,1.1 -1.1,1.7 -1,1.4 -1.1,3.2 -0.3,4.7 1.2,2.1 2.9,5.1 4.3,7.5 0.6,1.1 0.8,2.4 0.5,3.7 -0.3,1.2 -1.1,2.3 -2.3,2.9 0,0 0,0 0,0 -1.1,0.6 -2.4,0.8 -3.7,0.5 -1.3,-0.3 -2.3,-1.1 -2.9,-2.3 -1.5,-2.6 -3.3,-5.7 -4.6,-7.9 -0.8,-1.4 -2.4,-2.3 -4.1,-2.1 -3.3,0.3 -6.8,-0.4 -9.9,-2.2 -3.2,-1.9 -5.6,-4.6 -7.1,-7.7 -0.7,-1.5 -2.2,-2.5 -3.8,-2.5 -4.4,-0.1 -12.6,-0.1 -17.1,-0.2 -1.7,0 -3.2,0.9 -3.9,2.4 -0.2,0.4 -0.4,0.9 -0.7,1.3 -3.5,6.1 -10.1,9.2 -16.6,8.7 -1.6,-0.1 -3.2,0.7 -4.1,2.1 -2.3,3.9 -6.6,11.4 -8.9,15.3 -0.8,1.5 -0.8,3.3 0.2,4.6 0.6,0.9 1.2,1.8 1.6,2.8 0.7,1.5 2.2,2.5 3.9,2.5 2.2,0 -0.4,0 2.2,0 1.3,0 2.5,0.5 3.4,1.4 1,1 1.5,2.2 1.5,3.5 0,0 0,0 0,0 z m 92.9,-2.7 c 0,0.1 0,0.1 0.1,0.2 v 0 c 0.7,2 0.5,4.3 -0.7,6.3 -0.2,0.3 -0.4,0.6 -0.6,0.9 v 0 l -0.1,0.1 v 0 c -1.1,1.3 -2.5,2.2 -4.1,2.7 v 0 c -2,0.5 -4.1,0.3 -6,-0.8 -3.8,-2.2 -5,-7 -2.9,-10.7 0.2,-0.3 0.4,-0.6 0.6,-0.8 v 0 c 2.4,-3.1 6.7,-4.1 10.2,-2.1 1.8,1 3,2.5 3.5,4.2 z m -91.1,44 v 0 c 1.2,0.1 2.4,0.4 3.4,1 0.9,0.5 1.7,1.2 2.3,2.1 v 0 c 1.9,2.4 2.2,5.9 0.5,8.7 -0.2,0.4 -0.4,0.7 -0.7,1 v 0 c -2.4,3 -6.6,3.8 -10,1.9 -3.2,-1.9 -4.6,-5.7 -3.6,-9.1 v 0 c 0.2,-0.6 0.4,-1.1 0.7,-1.6 1.6,-2.7 4.5,-4.1 7.4,-4 z m 49.2,3.5 c 2.4,-4.1 7.7,-5.6 11.9,-3.2 4.1,2.4 5.6,7.7 3.2,11.9 -2.4,4.1 -7.7,5.6 -11.9,3.2 -4.1,-2.5 -5.6,-7.8 -3.2,-11.9 z m 7.9,-44.8 c 0,-1.3 0.5,-2.5 1.4,-3.4 0.9,-0.9 2.1,-1.4 3.4,-1.4 2.3,0 0,0 1.9,0 1.7,0 3.2,-1 3.9,-2.5 0.2,-0.5 0.5,-1 0.8,-1.5 4.8,-8.4 15.6,-11.3 23.9,-6.4 8.4,4.8 11.3,15.6 6.4,24 -3.4,5.8 -9.5,9 -15.8,8.8 -1.6,-0.1 -3.1,0.8 -3.9,2.2 -2.1,3.9 -6.2,11.3 -8.3,15.1 -0.8,1.4 -0.7,3.1 0.2,4.5 3.7,5.4 4.2,12.6 0.7,18.6 -4.8,8.4 -15.6,11.3 -23.9,6.4 -3.2,-1.9 -5.6,-4.6 -7.1,-7.7 -0.7,-1.5 -2.2,-2.5 -3.9,-2.5 -4.5,0 -13.2,0 -17.7,0 -1.7,0 -3.2,1 -3.9,2.5 -0.2,0.5 -0.5,1 -0.7,1.4 -4.8,8.4 -15.6,11.3 -24,6.4 -8.4,-4.9 -11.3,-15.6 -6.4,-24 0.2,-0.3 0.4,-0.7 0.6,-1 0.9,-1.4 1,-3.1 0.1,-4.5 -0.9,-1.6 -2.2,-3.8 -3.3,-5.6 -0.6,-1.1 -0.8,-2.4 -0.5,-3.7 0.3,-1.2 1.1,-2.3 2.3,-2.9 0,0 0,0 0,0 1.1,-0.6 2.4,-0.8 3.7,-0.5 1.2,0.3 2.3,1.1 2.9,2.3 1,1.7 2.1,3.7 3,5.2 0.9,1.5 2.5,2.3 4.2,2.1 3.6,-0.4 7.4,0.2 10.8,2.2 3.2,1.9 5.7,4.6 7.1,7.8 0.7,1.5 2.2,2.5 3.9,2.5 4.5,0 13.2,0 17.7,0 1.7,0 3.2,-1 3.9,-2.5 0.2,-0.5 0.5,-1 0.7,-1.5 3.6,-6.2 10.4,-9.4 17,-8.7 1.7,0.2 3.4,-0.7 4.2,-2.2 2,-3.7 5.6,-10.3 7.6,-14 0.8,-1.5 0.7,-3.4 -0.4,-4.7 -0.9,-1 -1.6,-2.2 -2.1,-3.4 -0.7,-1.5 -2.2,-2.5 -3.9,-2.5 -2,0 0.2,0 -2,0 -2.3,0 -4.5,-2.2 -4.5,-4.9 0,0 0,0 0,0 z"
   id="path852" />
</g>
</svg>
