<svg xmlns="http://www.w3.org/2000/svg" width="19.617" height="17.487" viewBox="0 0 19.617 17.487">
  <g id="home" transform="translate(0.001 -27.798)">
    <g id="Gruppe_2277" data-name="Gruppe 2277" transform="translate(-0.001 27.798)">
      <g id="Gruppe_2276" data-name="Gruppe 2276" transform="translate(0)">
        <path id="Pfad_732" data-name="Pfad 732" d="M19.408,34.7l-9.3-6.808a.51.51,0,0,0-.6,0L.208,34.7a.51.51,0,0,0,.6.823l9-6.588,9,6.588a.51.51,0,0,0,.6-.822Z" transform="translate(0.001 -27.798)" fill="#6c574c"/>
      </g>
    </g>
    <g id="Gruppe_2279" data-name="Gruppe 2279" transform="translate(2.162 35.642)">
      <g id="Gruppe_2278" data-name="Gruppe 2278">
        <path id="Pfad_733" data-name="Pfad 733" d="M71.233,232.543a.51.51,0,0,0-.51.51v8.113H66.646v-4.429a2.549,2.549,0,0,0-5.1,0v4.429H57.471v-8.113a.51.51,0,1,0-1.019,0v8.623a.51.51,0,0,0,.51.51h5.1a.509.509,0,0,0,.508-.47.386.386,0,0,0,0-.04v-4.938a1.529,1.529,0,1,1,3.059,0v4.938a.374.374,0,0,0,0,.039.509.509,0,0,0,.508.47h5.1a.51.51,0,0,0,.51-.51v-8.623A.51.51,0,0,0,71.233,232.543Z" transform="translate(-56.452 -232.543)" fill="#6c574c"/>
      </g>
    </g>
  </g>
</svg>
