<svg xmlns="http://www.w3.org/2000/svg" width="46" height="46" viewBox="0 0 46 46"><defs><style>.b{fill:#fff;}</style></defs><g transform="translate(-3923 -6863.934)"><g transform="translate(3473 6243.934)"><g transform="translate(462.285 631.464)"><path class="b" d="M16.569,9.663l-1.03,1.03L9.447,4.6,8.88,2.664,5.346.5,3.68,2.166,5.844,5.7l1.938.568,6.092,6.092-1.03,1.03,9.183,9.183,3.726-3.726Zm0,0" transform="translate(-3.52)"/><path class="b" d="M8.4,266.055l-.921-.921.921-.921.109-.109-.432-.432-3.389,3.389a3.632,3.632,0,0,0-4.311,5.09l2.435-2.434,1.634,1.634-2.434,2.434a3.632,3.632,0,0,0,5.09-4.311l2.365-2.354Zm0,0" transform="translate(0 -251.744)"/><path class="b" d="M267.284,12.195l.109-.109.921-.921,1.988,1.988,2.042-2.053a3.632,3.632,0,0,0,4.311-5.09L274.22,8.444l-1.634-1.634,2.434-2.435a3.632,3.632,0,0,0-5.09,4.311l-3.078,3.078Zm0,0" transform="translate(-255.265 -3.344)"/></g></g></g></svg>